HIERARCHY
ROOT Hips
{
	OFFSET 0.00000 0.00000 0.00000
	CHANNELS 6 Xposition Yposition Zposition Zrotation Yrotation Xrotation 
	JOINT LHipJoint
	{
		OFFSET 0 0 0
		CHANNELS 3 Zrotation Yrotation Xrotation
		JOINT LeftUpLeg
		{
			OFFSET 1.56857 -1.73443 1.15205
			CHANNELS 3 Zrotation Yrotation Xrotation
			JOINT LeftLeg
			{
				OFFSET 2.39362 -6.57643 0.00000
				CHANNELS 3 Zrotation Yrotation Xrotation
				JOINT LeftFoot
				{
					OFFSET 2.50952 -6.89485 0.00000
					CHANNELS 3 Zrotation Yrotation Xrotation
					JOINT LeftToeBase
					{
						OFFSET 0.17171 -0.47178 1.88682
						CHANNELS 3 Zrotation Yrotation Xrotation
						End Site
						{
							OFFSET 0.00000 -0.00000 0.98146
						}
					}
				}
			}
		}
	}
	JOINT RHipJoint
	{
		OFFSET 0 0 0
		CHANNELS 3 Zrotation Yrotation Xrotation
		JOINT RightUpLeg
		{
			OFFSET -1.28153 -1.73443 1.15205
			CHANNELS 3 Zrotation Yrotation Xrotation
			JOINT RightLeg
			{
				OFFSET -2.26861 -6.23296 0.00000
				CHANNELS 3 Zrotation Yrotation Xrotation
				JOINT RightFoot
				{
					OFFSET -2.54143 -6.98254 0.00000
					CHANNELS 3 Zrotation Yrotation Xrotation
					JOINT RightToeBase
					{
						OFFSET -0.23309 -0.64041 1.93119
						CHANNELS 3 Zrotation Yrotation Xrotation
						End Site
						{
							OFFSET -0.00000 -0.00000 1.02013
						}
					}
				}
			}
		}
	}
	JOINT LowerBack
	{
		OFFSET 0 0 0
		CHANNELS 3 Zrotation Yrotation Xrotation
		JOINT Spine
		{
			OFFSET -0.07096 2.10460 -0.27878
			CHANNELS 3 Zrotation Yrotation Xrotation
			JOINT Spine1
			{
				OFFSET -0.00826 2.13662 -0.08279
				CHANNELS 3 Zrotation Yrotation Xrotation
				JOINT Neck
				{
					OFFSET 0 0 0
					CHANNELS 3 Zrotation Yrotation Xrotation
					JOINT Neck1
					{
						OFFSET 0.03239 1.77799 0.24435
						CHANNELS 3 Zrotation Yrotation Xrotation
						JOINT Head
						{
							OFFSET 0.01026 1.74194 -0.49664
							CHANNELS 3 Zrotation Yrotation Xrotation
							End Site
							{
								OFFSET 0.00170 1.83057 -0.19653
							}
						}
					}
				}
				JOINT LeftShoulder
				{
					OFFSET 0 0 0
					CHANNELS 3 Zrotation Yrotation Xrotation
					JOINT LeftArm
					{
						OFFSET 3.19178 1.35907 -0.31412
						CHANNELS 3 Zrotation Yrotation Xrotation
						JOINT LeftForeArm
						{
							OFFSET 4.85247 -0.00000 -0.00000
							CHANNELS 3 Zrotation Yrotation Xrotation
							JOINT LeftHand
							{
								OFFSET 3.55584 -0.00000 0.00000
								CHANNELS 3 Zrotation Yrotation Xrotation
								JOINT LeftFingerBase
								{
									OFFSET 0 0 0
									CHANNELS 3 Zrotation Yrotation Xrotation
									JOINT LeftHandIndex1
									{
										OFFSET 0.69320 -0.00000 0.00000
										CHANNELS 3 Zrotation Yrotation Xrotation
										End Site
										{
											OFFSET 0.55888 -0.00000 0.00000
										}
									}
								}
								JOINT LThumb
								{
									OFFSET 0 0 0
									CHANNELS 3 Zrotation Yrotation Xrotation
									End Site
									{
										OFFSET 0.56741 -0.00000 0.56741
									}
								}
							}
						}
					}
				}
				JOINT RightShoulder
				{
					OFFSET 0 0 0
					CHANNELS 3 Zrotation Yrotation Xrotation
					JOINT RightArm
					{
						OFFSET -3.28999 1.24191 -0.26899
						CHANNELS 3 Zrotation Yrotation Xrotation
						JOINT RightForeArm
						{
							OFFSET -4.64462 -0.00000 0.00000
							CHANNELS 3 Zrotation Yrotation Xrotation
							JOINT RightHand
							{
								OFFSET -3.40703 -0.00000 0.00000
								CHANNELS 3 Zrotation Yrotation Xrotation
								JOINT RightFingerBase
								{
									OFFSET 0 0 0
									CHANNELS 3 Zrotation Yrotation Xrotation
									JOINT RightHandIndex1
									{
										OFFSET -0.61958 -0.00000 0.00000
										CHANNELS 3 Zrotation Yrotation Xrotation
										End Site
										{
											OFFSET -0.49952 -0.00000 0.00000
										}
									}
								}
								JOINT RThumb
								{
									OFFSET 0 0 0
									CHANNELS 3 Zrotation Yrotation Xrotation
									End Site
									{
										OFFSET -0.50715 -0.00000 0.50715
									}
								}
							}
						}
					}
				}
			}
		}
	}
}
MOTION
Frames: 10
Frame Time: .0083333
-29.1459 17.0092 1.148 0 0 0 0 0 0 -21 0 0 0 0 0 0 0 0 0 0 0 0 0 0 21 0 0 0 0 0 0 0 0 0 0 0 0 0 0 0 0 0 0 0 0 0 0 -16 0 0 21 0 0 11 0 0 0 -8 0 0 0 0 0 0 0 0 0 0 0 0 0 0 0 0 0 0 0 0 8 0 0 0 0 0 0 0 0 0 0 0 0 0 0 0 0 0
-29.1459 17.0092 1.1480 76.7737 85.9888 72.9574 0.0000 0.0000 0.0000 -16.2230 4.2063 6.8575 0.2141 2.9792 8.2209 0.3952 7.6010 -17.0197 0.7042 -5.3637 -14.9487 0.0000 0.0000 0.0000 4.2276 -3.7728 11.6427 -0.0157 -0.8088 2.2227 -0.7473 -0.9098 -16.6853 -0.0218 0.9538 -2.6217 -4.5004 1.4141 6.9874 -0.0458 1.8302 5.4333 2.3751 0.8665 1.5762 4.1329 2.2445 -23.3560 -0.9548 1.8932 15.6934 -0.7282 1.0399 8.7771 0.0000 -0.0000 0.0000 -86.5687 -4.3400 41.2463 12.8053 -21.0012 -2.3830 -0.0000 -0.0000 11.6568 17.2130 -24.4194 -7.2984 -7.1250 0.0000 -0.0000 -7.4683 4.7409 6.8854 0.0000 -0.0000 0.0000 86.0794 2.9429 47.1707 -15.8700 25.3440 -3.5901 0.0000 0.0000 2.3620 -7.3026 -36.6051 4.3698 7.1250 -0.0000 -0.0000 33.1451 -63.7882 -15.9541
-29.1324 17.0061 1.1185 75.4374 85.8231 71.5876 0.0000 0.0000 0.0000 -16.4475 4.3947 7.0814 0.1999 2.8790 7.9422 0.3946 7.5751 -16.9880 0.6893 -5.3079 -14.7887 0.0000 0.0000 0.0000 4.1287 -3.3383 11.8954 -0.0154 -0.8011 2.2017 -0.7523 -1.3389 -16.9225 -0.0507 1.4533 -3.9970 -4.7209 1.4606 6.7949 -0.1622 1.8948 5.4680 2.3802 0.8913 1.7130 4.2080 2.2593 -23.5425 -1.1598 1.9228 15.9046 -0.8053 1.0360 8.8853 -0.0000 -0.0000 0.0000 -86.5195 -4.3363 41.3634 12.8844 -21.1177 -2.4115 -0.0000 -0.0000 11.5874 17.9478 -24.1033 -7.5354 -7.1250 0.0000 -0.0000 -6.9917 4.9526 6.4109 -0.0000 -0.0000 0.0000 86.2171 2.8940 47.2799 -15.8259 25.2841 -3.5713 0.0000 0.0000 2.5697 -8.1990 -35.5096 4.7839 7.1250 -0.0000 -0.0000 30.9353 -63.1170 -14.2999
-29.1161 17.0034 1.0894 75.4131 85.3683 71.4323 0.0000 0.0000 0.0000 -17.1124 4.4752 7.5537 0.1803 2.7350 7.5419 0.3926 7.7015 -17.0828 0.6534 -5.1705 -14.3956 0.0000 0.0000 0.0000 3.5340 -3.1541 12.2310 -0.0134 -0.7474 2.0541 -0.7533 -1.4540 -16.9835 -0.0812 1.8377 -5.0572 -5.1990 1.5551 6.7326 -0.4019 2.0059 5.4617 2.3952 0.9381 1.7297 4.3287 2.2440 -23.6463 -1.2811 1.8835 16.1559 -0.8716 1.0132 8.9915 0.0000 -0.0000 0.0000 -86.3662 -4.3182 41.1906 12.9671 -21.2390 -2.4413 -0.0000 -0.0000 11.0670 17.2583 -24.3437 -7.2976 -7.1250 0.0000 -0.0000 -7.4348 4.8112 6.8441 0.0000 -0.0000 0.0000 86.4532 2.6411 47.1835 -15.8328 25.2934 -3.5742 0.0000 0.0000 2.8353 -12.4944 -32.2439 6.7425 7.1250 -0.0000 -0.0000 23.1478 -61.3472 -9.4989
-29.1038 17.0030 1.0620 74.8965 84.8724 70.7325 0.0000 0.0000 0.0000 -17.8261 4.5410 8.0566 0.1631 2.6023 7.1733 0.3958 7.8614 -17.2741 0.5822 -4.8858 -13.5833 0.0000 0.0000 0.0000 2.6719 -3.4729 12.3302 -0.0130 -0.7370 2.0255 -0.7374 -1.0056 -16.6170 -0.1085 2.1237 -5.8478 -5.7050 1.6556 6.8034 -0.6526 2.1175 5.4569 2.4101 0.9874 1.6738 4.3660 2.2246 -23.6476 -1.2891 1.8466 16.2011 -0.8857 0.9979 9.0069 -0.0000 -0.0000 0.0000 -86.2800 -4.4438 41.1992 12.9121 -21.1583 -2.4215 -0.0000 -0.0000 10.9347 17.0251 -24.0375 -7.1098 -7.1250 0.0000 -0.0000 -7.5559 5.1570 6.9078 -0.0000 -0.0000 0.0000 86.6580 2.3905 47.4707 -15.9088 25.3968 -3.6068 0.0000 0.0000 2.4167 -9.5169 -35.1797 5.5170 7.1250 -0.0000 -0.0000 29.1959 -63.1822 -13.4665
-29.1027 17.0022 1.0276 71.7722 84.3720 67.5427 0.0000 0.0000 0.0000 -18.3944 4.8948 8.1832 0.1553 2.5390 6.9979 0.4091 7.8799 -17.4502 0.4886 -4.4819 -12.4365 0.0000 0.0000 0.0000 1.7914 -3.8858 11.8990 -0.0177 -0.8601 2.3639 -0.7127 -0.2194 -16.0354 -0.1309 2.3321 -6.4245 -6.1181 1.7527 6.8111 -0.8239 2.2303 5.4551 2.4564 1.0370 1.6545 4.1736 2.2897 -23.5987 -1.2309 1.9892 16.0913 -0.8144 1.0580 8.9617 0.0000 -0.0000 0.0000 -86.3701 -4.5857 40.9315 12.8298 -21.0373 -2.3918 -0.0000 -0.0000 10.9981 16.2847 -24.0747 -6.7958 -7.1250 0.0000 -0.0000 -8.0151 5.2258 7.3254 0.0000 -0.0000 0.0000 86.6834 2.3494 47.9670 -15.9118 25.4008 -3.6080 0.0000 0.0000 1.8907 -7.7097 -36.8916 4.6461 7.1250 -0.0000 -0.0000 33.0782 -64.1325 -16.1820
-29.1130 17.0015 0.9811 64.7669 83.8981 60.4930 0.0000 0.0000 0.0000 -18.7686 5.3561 8.2794 0.1466 2.4676 6.7998 0.4073 8.1807 -17.7169 0.4513 -4.3097 -11.9495 0.0000 0.0000 0.0000 1.2355 -3.9774 11.1515 -0.0286 -1.0914 3.0005 -0.6913 0.6951 -15.4883 -0.1515 2.5084 -6.9130 -6.1393 1.9897 6.9280 -0.9831 2.5345 5.4089 2.2800 1.1960 1.5216 4.1546 2.3482 -23.5238 -1.3356 2.1008 16.0148 -0.8320 1.0964 8.9264 -0.0000 0.0000 0.0000 -86.3748 -4.5389 40.8676 12.8397 -21.0519 -2.3954 -0.0000 -0.0000 11.3825 16.4190 -24.5422 -6.9782 -7.1250 0.0000 -0.0000 -7.9648 4.7329 7.3533 -0.0000 0.0000 0.0000 86.7762 2.3011 47.7332 -15.8526 25.3204 -3.5827 0.0000 0.0000 2.5453 -2.7859 -38.7683 1.7453 7.1250 -0.0000 -0.0000 40.4979 -64.2579 -20.4725
-29.1029 17.0072 0.9475 63.1713 84.0697 58.6894 0.0000 0.0000 0.0000 -18.5909 5.4444 8.7243 0.1339 2.3582 6.4967 0.3873 8.3039 -17.5990 0.5033 -4.5478 -12.6232 0.0000 0.0000 0.0000 1.5044 -3.7489 11.5224 -0.0268 -1.0566 2.9044 -0.6902 0.5014 -15.5352 -0.1647 2.6148 -7.2081 -5.8428 2.0128 7.0606 -1.0784 2.5755 5.4398 2.0099 1.2282 1.4908 4.2669 2.3381 -23.6131 -1.3353 2.0460 16.1412 -0.8572 1.0787 8.9853 -0.0000 0.0000 0.0000 -86.2276 -4.5788 40.5955 12.9610 -21.2300 -2.4391 -0.0000 -0.0000 10.8216 15.2770 -25.1428 -6.6196 -7.1250 0.0000 -0.0000 -8.7041 4.2901 8.1247 -0.0000 0.0000 0.0000 87.1276 2.2263 46.8749 -15.7607 25.1951 -3.5435 0.0000 0.0000 3.7713 -8.2369 -34.5434 4.6925 7.1250 -0.0000 -0.0000 29.8377 -62.3098 -13.1780
-29.0930 16.9972 0.9204 58.4113 84.0137 54.2137 0.0000 0.0000 0.0000 -18.4026 5.6579 8.6321 0.1205 2.2375 6.1626 0.3620 8.4953 -17.4858 0.5594 -4.7907 -13.3125 0.0000 0.0000 0.0000 1.7251 -3.3419 11.1799 -0.0283 -1.0853 2.9834 -0.6822 0.5829 -15.4184 -0.1358 2.3754 -6.5443 -5.7710 2.0153 6.6443 -1.0455 2.5932 5.2832 2.0147 1.2336 1.5564 4.0383 2.3806 -23.3774 -1.2338 2.1711 16.1810 -0.7688 1.1357 8.9587 -0.0000 0.0000 0.0000 -86.2636 -4.2394 41.1001 13.0918 -21.4216 -2.4867 -0.0000 -0.0000 11.4903 17.7632 -24.1082 -7.4550 -7.1250 0.0000 -0.0000 -7.1060 4.9756 6.5143 -0.0000 0.0000 0.0000 87.1511 2.0129 46.9088 -15.6920 25.1013 -3.5143 0.0000 0.0000 3.5281 -10.7028 -32.7355 5.8357 7.1250 -0.0000 -0.0000 25.4789 -61.3506 -10.5257
-29.0921 17.0042 0.8907 55.3453 83.6321 50.9023 0.0000 0.0000 0.0000 -18.5791 6.1507 9.0062 0.1081 2.1200 5.8375 0.3544 8.6355 -17.5354 0.5232 -4.6358 -12.8726 0.0000 0.0000 0.0000 1.5486 -2.9576 11.3761 -0.0287 -1.0932 3.0052 -0.6815 0.6813 -15.3808 -0.1072 2.1111 -5.8128 -5.9212 2.1957 6.8824 -1.1942 2.8128 5.2774 1.9219 1.3480 1.4040 4.1418 2.3752 -23.3458 -1.2702 2.1394 16.2468 -0.8027 1.1241 8.9770 -0.0000 0.0000 0.0000 -86.1633 -4.3504 41.1515 13.3555 -21.8059 -2.5839 -0.0000 -0.0000 10.2561 15.7872 -22.9843 -6.2999 -7.1250 0.0000 -0.0000 -8.2555 6.3988 7.3627 -0.0000 0.0000 0.0000 87.3869 1.9137 46.8384 -15.5809 24.9491 -3.4673 0.0000 0.0000 2.6199 -11.8097 -32.2818 6.3718 7.1250 -0.0000 -0.0000 23.9045 -61.2145 -9.7539
